<?xml version="1.0" encoding="utf-8"?>
<!-- Generator: Adobe Illustrator 21.1.0, SVG Export Plug-In . SVG Version: 6.00 Build 0)  -->
<svg version="1.1" id="Layer_1" xmlns="http://www.w3.org/2000/svg" xmlns:xlink="http://www.w3.org/1999/xlink" x="0px" y="0px"
	 viewBox="0 0 507 389" style="enable-background:new 0 0 507 389;" xml:space="preserve">
<style type="text/css">
	.st0{fill:none;stroke:#009EE2;stroke-width:2.7258;stroke-linecap:round;stroke-linejoin:round;}
</style>
<title>Services_Illu/AudioVisual</title>
<desc>Created with Sketch.</desc>
<g id="Desktop">
	<g id="D---Services" transform="translate(-1008.000000, -960.000000)">
		<g id="_x30_1---Audio-Visual" transform="translate(177.000000, 907.000000)">
			<g id="Services_x5F_Illu_x2F_AudioVisual" transform="translate(799.000000, 22.000000)">
				<g id="Illustration" transform="translate(33.000000, 33.000000)">
					<g id="Light" transform="translate(0.000000, 21.000000)">
						<polyline id="Stroke-1" class="st0" points="101.3,65.6 156.6,89.1 123.9,165.6 30.3,125.8 63.1,49.3 86.3,59.2 						"/>
						<polyline id="Stroke-2" class="st0" points="155.5,92.9 195.7,110 166,179.2 125.7,162.2 						"/>
						<polygon id="Stroke-3" class="st0" points="58.1,61.2 35.5,114 23.8,109 46.3,56.2 						"/>
						<path id="Stroke-5" class="st0" d="M86.3,121.8c-7.4-3.8-10.6-12.7-7.3-20.5c1.5-3.5,4.1-6.3,7.3-7.9"/>
						<path id="Stroke-7" class="st0" d="M101.2,93.4c7.4,3.8,10.6,12.7,7.3,20.5c-1.5,3.5-4.1,6.3-7.3,7.9"/>
						<polygon id="Stroke-9" class="st0" points="86.3,137.4 101.2,137.4 101.2,15.9 86.3,15.9 						"/>
						<path id="Stroke-11" class="st0" d="M213.4,119.6l53.8-17.8"/>
						<path id="Stroke-12" class="st0" d="M185.1,185.5l24.2,51.2"/>
						<polyline id="Stroke-13" class="st0" points="213.3,119.8 249.5,143.1 253.4,151.7 244.7,171.8 236.1,192 227.2,195.2 
							185.4,185.2 						"/>
						<polygon id="Stroke-14" class="st0" points="184.4,187.4 214.2,117.7 205.5,114 175.7,183.6 						"/>
						<path id="Stroke-15" class="st0" d="M202.9,119.9l-10.2-4.3"/>
						<path id="Stroke-16" class="st0" d="M178.3,177.7l-10.2-4.3"/>
					</g>
					<g id="Video" transform="translate(91.000000, 220.000000)">
						<path id="Stroke-23" class="st0" d="M117.1,10.7C132.3,22.3,142,40.5,142,61c0,35.1-28.5,63.5-63.6,63.5S14.8,96.1,14.8,61
							S43.3-2.4,78.4-2.4c2.9,0,5.7,0.2,8.4,0.6"/>
						<polyline id="Stroke-24" class="st0" points="101.8,61 60.8,86.5 60.8,61 60.8,35.6 101.8,61 						"/>
					</g>
					<g id="Wifi" transform="translate(304.000000, 230.000000)">
						<path id="Stroke-25" class="st0" d="M99.2,125c0,7-5.7,12.6-12.7,12.6c-7,0-12.7-5.7-12.7-12.6c0-7,5.7-12.6,12.7-12.6
							C93.6,112.3,99.2,118,99.2,125z"/>
						<path id="Stroke-26" class="st0" d="M57.8,96.3c7.4-7.3,17.5-11.9,28.8-11.9c11.2,0,21.4,4.5,28.8,11.9l20.9-20.9
							C123.5,62.7,106,54.8,86.6,54.8s-37,7.9-49.7,20.5L57.8,96.3z"/>
						<path id="Stroke-27" class="st0" d="M3.5,27.9c-2.5,2.2-5,4.4-7.3,6.8l20.9,20.9c17.8-17.8,42.4-28.7,69.5-28.7
							s51.7,11,69.5,28.7L177,34.7l0,0C153.9,11.6,121.9-2.7,86.6-2.7"/>
					</g>
					<g id="Sound" transform="translate(238.000000, 0.000000)">
						<path id="Stroke-17" class="st0" d="M1.3,147.2v-5.7"/>
						<polyline id="Stroke-18" class="st0" points="1.5,121.9 1.5,27.3 133.5,27.3 133.5,241.5 1.5,241.5 1.5,222.7 						"/>
						<path id="Stroke-19" class="st0" d="M75.5,81.7c0,4.4-3.6,8-8,8c-4.4,0-8-3.6-8-8c0-4.4,3.6-8,8-8
							C71.9,73.7,75.5,77.3,75.5,81.7z"/>
						<path id="Stroke-20" class="st0" d="M96.9,81.7c0,16.2-13.2,29.4-29.4,29.4c-16.2,0-29.4-13.1-29.4-29.4s13.2-29.4,29.4-29.4
							C83.7,52.4,96.9,65.5,96.9,81.7z"/>
						<path id="Stroke-21" class="st0" d="M79.3,177.4c0,6.5-5.3,11.8-11.8,11.8s-11.8-5.3-11.8-11.8c0-6.5,5.3-11.8,11.8-11.8
							S79.3,170.8,79.3,177.4z"/>
						<path id="Stroke-22" class="st0" d="M111,177.4c0,24-19.5,43.4-43.5,43.4S24,201.4,24,177.4s19.5-43.4,43.5-43.4
							S111,153.4,111,177.4z"/>
						<path id="Stroke-28" class="st0" d="M21.1,17.6h92.8"/>
					</g>
				</g>
			</g>
		</g>
	</g>
</g>
</svg>
